<?xml version="1.0" encoding="UTF-8" standalone="no"?>
<svg
   xmlns:dc="http://purl.org/dc/elements/1.1/"
   xmlns:cc="http://creativecommons.org/ns#"
   xmlns:rdf="http://www.w3.org/1999/02/22-rdf-syntax-ns#"
   xmlns:svg="http://www.w3.org/2000/svg"
   xmlns="http://www.w3.org/2000/svg"
   xmlns:sodipodi="http://sodipodi.sourceforge.net/DTD/sodipodi-0.dtd"
   xmlns:inkscape="http://www.inkscape.org/namespaces/inkscape"
   version="1.1"
   id="Layer_1"
   x="0px"
   y="0px"
   viewBox="0 0 857.62155 649.6"
   xml:space="preserve"
   sodipodi:docname="amevi-presentation-web-A.svg"
   width="857.62152"
   height="649.59998"
   inkscape:version="1.0 (1.0+r73+1)"><metadata
   id="metadata2436"><rdf:RDF><cc:Work
       rdf:about=""><dc:format>image/svg+xml</dc:format><dc:type
         rdf:resource="http://purl.org/dc/dcmitype/StillImage" /><dc:title /><dc:creator><cc:Agent><dc:title>Kwashi Eli Etse / Antoine-Elie ELKWAET (Open-Source &amp; Digital Fabric)</dc:title></cc:Agent></dc:creator><dc:publisher><cc:Agent><dc:title>Antoine-Elie ELKWAET, LibrawebTogo, OpenSDF</dc:title></cc:Agent></dc:publisher><dc:language>fr</dc:language><dc:subject><rdf:Bag><rdf:li>Elkwaet</rdf:li><rdf:li>LibrawebTogo</rdf:li><rdf:li>Libraweb</rdf:li><rdf:li>Open-SDF</rdf:li></rdf:Bag></dc:subject><dc:coverage>global</dc:coverage><dc:description>https://twitter.com/elkwaet | http://elkwaet.deviantart.com | https://www.elkwaet.tk  &lt;OPEN SOURCE &amp; DIGITAL FABRIC - Open-SDF Togo&gt;</dc:description><dc:contributor><cc:Agent><dc:title>Open-SDF</dc:title></cc:Agent></dc:contributor><cc:license
         rdf:resource="http://creativecommons.org/licenses/by-nd/4.0/" /></cc:Work><cc:License
       rdf:about="http://creativecommons.org/licenses/by-nd/4.0/"><cc:permits
         rdf:resource="http://creativecommons.org/ns#Reproduction" /><cc:permits
         rdf:resource="http://creativecommons.org/ns#Distribution" /><cc:requires
         rdf:resource="http://creativecommons.org/ns#Notice" /><cc:requires
         rdf:resource="http://creativecommons.org/ns#Attribution" /></cc:License></rdf:RDF></metadata><defs
   id="defs2434" /><sodipodi:namedview
   inkscape:document-rotation="0"
   pagecolor="#ffffff"
   bordercolor="#666666"
   borderopacity="1"
   objecttolerance="10"
   gridtolerance="10"
   guidetolerance="10"
   inkscape:pageopacity="0"
   inkscape:pageshadow="2"
   inkscape:window-width="1920"
   inkscape:window-height="1080"
   id="namedview2432"
   showgrid="false"
   inkscape:pagecheckerboard="true"
   inkscape:zoom="2.6293105"
   inkscape:cx="85.160912"
   inkscape:cy="442.32495"
   inkscape:window-x="0"
   inkscape:window-y="0"
   inkscape:window-maximized="1"
   inkscape:current-layer="Layer_1" />
<style
   type="text/css"
   id="style2361">
	.st0{fill:#EFF3F9;}
	.st1{fill:#E3E6EC;}
	.st2{fill:#F76400;}
	.st3{fill:#FFFFFF;}
	.st4{fill:#DE8E68;}
	.st5{fill:#07A37E;}
	.st6{fill:#E59E85;}
	.st7{fill:#E29307;}
	.st8{fill:#FED892;}
	.st9{fill:none;stroke:#000000;stroke-width:0.95;stroke-miterlimit:10;}
	.st10{fill:none;stroke:#000000;stroke-width:1.0746;stroke-linecap:round;stroke-miterlimit:10;}
	.st11{fill:#00BA94;}
	.st12{fill:#ED4840;}
	.st13{fill:#F4A100;}
	.st14{fill:#E09577;}
	.st15{fill:#FCB330;}
	.st16{fill:#D3876C;}
</style>


<g
   transform="translate(0.01232186)"
   id="g1557"><g
     id="g1511"><path
       class="st0"
       d="M 97.7,0 H 756.8 C 767.4,0 776,6.4 776,14.2 v 482.5 c 0,7.9 -8.6,14.2 -19.2,14.2 H 97.7 c -10.6,0 -19.2,-6.4 -19.2,-14.2 V 14.2 C 78.5,6.4 87.1,0 97.7,0 Z"
       id="path1487" /><path
       class="st1"
       d="M 97.7,0 H 756.8 C 767.4,0 776,9 776,20 V 54.6 H 78.5 V 20 C 78.5,9 87.1,0 97.7,0 Z"
       id="path1489" /><circle
       class="st2"
       cx="116.9"
       cy="28"
       r="8.6000004"
       id="circle1491" /><circle
       class="st2"
       cx="144.60001"
       cy="28"
       r="8.6000004"
       id="circle1493" /><circle
       class="st2"
       cx="172.3"
       cy="28"
       r="8.6000004"
       id="circle1495" /><rect
       x="114.1"
       y="94.400002"
       class="st3"
       width="290.89999"
       height="157.60001"
       id="rect1497" /><rect
       x="114.1"
       y="289.39999"
       class="st3"
       width="290.89999"
       height="180.60001"
       id="rect1499" /><rect
       x="444.60001"
       y="266.39999"
       class="st3"
       width="290.89999"
       height="203.60001"
       id="rect1501" /><rect
       x="444.60001"
       y="94.699997"
       class="st1"
       width="290.89999"
       height="14.8"
       id="rect1503" /><rect
       x="444.60001"
       y="137.60001"
       class="st1"
       width="290.89999"
       height="14.8"
       id="rect1505" /><rect
       x="444.60001"
       y="180.5"
       class="st1"
       width="290.89999"
       height="14.8"
       id="rect1507" /><rect
       x="444.60001"
       y="222.89999"
       class="st1"
       width="290.89999"
       height="14.8"
       id="rect1509" /></g><g
     id="g1555"><rect
       x="608.5"
       y="503.20001"
       class="st4"
       width="15.3"
       height="23.200001"
       id="rect1513"
       style="fill:#a05a2c;fill-opacity:1" /><rect
       x="788.79999"
       y="601.20001"
       class="st4"
       width="15.3"
       height="23.200001"
       id="rect1515"
       style="fill:#a05a2c;fill-opacity:1" /><path
       class="st5"
       d="m 720.8,288.5 c -18.5,0 -101.1,82.1 -108.3,95.9 -7.2,13.8 -5.1,121.9 -5.1,121.9 l 17.8,3.4 28.9,-100.7 c 12.6,-1.5 65.6,-12.9 93,-35 27.4,-22.2 -2.6,-71.7 -2.6,-71.7 z"
       id="path1517"
       style="fill:#666666;fill-opacity:1" /><path
       class="st6"
       d="m 689.9,177 c -9.1,8.1 -27.3,28.4 -28.8,31 -4.6,-2.2 -52.5,-27.4 -56.1,-29 -3.6,-1.6 -11.2,-14.3 -13.8,-14.3 -1.5,0 -2.9,2.9 -2.9,4.9 0,3.4 1.6,6 2.6,7.1 -3.4,-0.5 -33.4,-2.8 -33.4,-0.8 0,5.2 33.6,12.1 36.2,13.5 2.6,1.4 57.3,52 76.3,52 7.4,0 40.1,-22.2 40.1,-24.6 3.1,-2.1 7.9,-5.2 7.9,-5.2 V 194 l -11.4,-8.3 c 0,-0.1 -14.9,-10.3 -16.7,-8.7 z"
       id="path1519"
       style="fill:#a05a2c;fill-opacity:1" /><path
       class="st7"
       d="m 688.7,171.2 c 2,-16.2 39.3,-53 56.4,-36.6 14.9,14.3 -12.1,65.4 -19,67.4 -7.8,0.8 -37.9,-19.8 -37.4,-30.8 z"
       id="path1521" /><path
       class="st8"
       d="m 802.5,137.5 c 19,-8 45.6,36 42.6,52 0,7 -39,22 -45,18 -6,-4 -16.6,-62 2.4,-70 z"
       id="path1523" /><path
       class="st9"
       d="M 770.3,196.6"
       id="path1525" /><path
       class="st10"
       d="M 823.3,87.5"
       id="path1527" /><path
       class="st11"
       d="m 725.9,295.6 62.8,305.5 h 16.1 l 5.7,-272.5 c 0,-4.7 -0.4,-34.3 -0.4,-38.1 -18.2,5.3 -57,9.5 -84.2,5.1 z"
       id="path1529"
       style="fill:#b3b3b3;fill-opacity:1" /><polygon
       points="788.8,624.4 804.1,624.4 804.1,641 761.9,641 "
       id="polygon1531" /><polygon
       points="608.5,526.4 623.8,526.4 623.8,543 581.6,543 "
       id="polygon1533" /><path
       class="st12"
       d="m 526,543 h 163.4 c 5.2,0 9.3,4.2 9.3,9.3 v 87.9 c 0,5.2 -4.2,9.3 -9.3,9.3 H 526 c -5.2,0 -9.3,-4.2 -9.3,-9.3 v -87.9 c -0.1,-5.1 4.1,-9.3 9.3,-9.3 z"
       id="path1535"
       style="fill:#ff6702;fill-opacity:1" /><path
       class="st12"
       d="M 99.6,649.6 43.4,649 c -4.1,0 -7.6,-2.8 -8.7,-6.7 L 15,570.1 c -1.6,-5.8 2.8,-11.5 8.8,-11.5 h 94.3 c 5.9,0 10.3,5.6 8.8,11.3 l -18.4,72.8 c -1,4.1 -4.6,6.9 -8.9,6.9 z"
       id="path1537"
       style="fill:#ff6702;fill-opacity:1" /><path
       class="st13"
       d="m 760.9,114 c 47,0 63.4,39.1 63.4,51.8 0,12.7 -14.7,90.2 -14.1,124.7 0.1,5.7 -84.3,10.8 -95.8,2.5 -5.4,-3.9 -17,-179 46.5,-179 z"
       id="path1539" /><path
       class="st14"
       d="m 845.1,189.5 c 13.3,20.4 12.5,67.4 12.5,74.5 0,7.1 -49.6,70.9 -53.9,70.9 -2.6,-2.6 -9.8,-10.5 -9.8,-12.9 2.3,-4.2 31.8,-68.7 37.1,-73.3 -2.4,-2.9 -23.5,-36 -24.4,-41.5 18.5,-3.1 36.4,-10.9 38.5,-17.7 z"
       id="path1541"
       style="fill:#a05a2c;fill-opacity:1" /><path
       class="st15"
       d="m 845.1,189.5 c 3,-16 -21.3,-62.4 -42.6,-52 -18.5,9.1 -8.4,66 -2.4,70 7.2,3.1 42.2,-7.4 45,-18 z"
       id="path1543" /><path
       class="st16"
       d="m 748.9,104.4 c -1,3.1 -1.5,12.7 -0.4,17 0.1,0.2 20,1.7 22.2,-1.8 0.1,-2.9 4.9,-28.7 11.4,-36.7 0.6,-0.9 -0.7,-3.4 -0.7,-3.4 l -23.1,9.6 -9.4,15.3"
       id="path1545"
       style="fill:#784421" /><path
       d="m 778.8,81.7 c 1.5,2 3.4,2.9 5.1,2.9 3.8,0 12.6,-3.5 12.6,-16 0,-9 -8.8,-13.6 -8.8,-17.9 0,-4.1 1.1,-4.2 1.1,-7.6 0,-1.7 -1.7,-7.3 -7,-7.3 -3,0 -4.1,2.5 -7.1,2.5 -3.3,0 -6.3,-6.4 -11.3,-6.4 -3.4,0 -6.6,3.2 -10.2,3.2 -4.1,0 -6.9,-6.1 -12.6,-6.1 -5.9,0 -8,5.3 -10.3,5.3 -2.9,0 -3.4,-0.8 -6.3,-0.8 -1.8,0 -7.3,3.2 -7.3,9 0,4.1 1.7,10.8 10.2,10.8 5,0 7.8,7.9 12.2,7.9 1.7,0 3.2,-1.4 3.6,-0.7 1.7,3 5.2,11.2 5.2,11.2 l 15.9,8.9 z"
       id="path1547" /><path
       class="st14"
       d="m 775.3,77.6 c 0,1.4 -0.5,1.7 -2.6,1.7 -1,0 -2.4,-1.3 -2.4,-2.7 0,-3.3 2.4,-4 2.4,-8.3 0,-7.3 -19.1,-11.1 -25.8,-14.9 v 0 c -2.4,2.4 -4.1,5.5 -4.8,9 l -4.3,22.1 c -1.9,9.6 4.4,18.9 13.9,20.8 9.5,1.9 18.9,-4.4 20.8,-13.9 l 0.7,-3.8 v 0 c 0.4,0.1 0.8,0.2 1.1,0.2 2.5,0 4.4,-2.3 4.4,-5.1 0.2,-2.6 -3.4,-7.2 -3.4,-5.1 z"
       id="path1549"
       style="fill:#a05a2c;fill-opacity:1" /><path
       style="fill:#7bba00;fill-opacity:1"
       class="st5"
       d="M 83.4,523.9 C 63.1,388 13.4,316.7 7.1,319.4 c -8.9,3.9 -11.5,80.2 4.4,159 0.4,0 0.7,-0.1 1.1,-0.1 4.6,0 8.3,3.7 8.3,8.3 0,1.4 -0.3,2.7 -0.9,3.8 2.7,1.4 4.6,4.2 4.6,7.4 0,4 -2.9,7.4 -6.7,8.2 4.7,18.2 10.6,36.2 17.6,52.9 3.6,0 44,0 44,0 0,0 6.9,-15.2 3.9,-35 z"
       id="path1551" /><path
       style="fill:#a8ff00;fill-opacity:1"
       class="st11"
       d="m 200.9,379.8 c -12.3,0 -25.5,35.4 -40.1,35.4 -3.2,0 -5.3,-3.5 -5.3,-6.8 0,-3.2 10.1,-38.4 10.1,-55.5 0,-1.5 -0.1,-3.1 -0.3,-4.7 -1.6,1 -3.6,1.6 -5.6,1.6 -6,0 -10.9,-4.9 -10.9,-10.9 0,-5.3 3.7,-9.6 8.7,-10.7 -5.1,-6.5 -12.6,-11.1 -22.8,-11.1 -12.9,0 -31.1,11.5 -31.1,29.3 0,5 1.5,17.7 1.5,29.2 0,65.2 -51.1,75 -51.1,147.2 0,15.2 8.4,31.9 10.9,36 0,0 42.8,0.5 46.9,0.5 4.1,0 37.4,-55.6 41.2,-61.5 14.5,-22.4 62.7,-47 62.7,-100.5 0,-7.5 -2.7,-17.5 -14.8,-17.5 z"
       id="path1553" /></g></g></svg>
