<svg xmlns="http://www.w3.org/2000/svg" xmlns:xlink="http://www.w3.org/1999/xlink" viewBox="0 0 176.212 39.311" height="148.577" width="665.998" xmlns:v="https://vecta.io/nano"><g fill="#fff"><path d="M63.418 4.268c-6.622 0-11.997 5.284-11.997 11.838 0 6.532 5.375 11.838 11.997 11.838 6.645 0 12.02-5.307 12.02-11.838 0-6.554-5.375-11.838-12.02-11.838zm71.369.317c-5.307 0-8.641 2.223-8.641 6.532 0 4.286 3.016 6.713 5.692 7.393 2.699.658 2.948 2.177 2.948 2.563 0 .408-.295 1.86-2.54 1.814-1.61-.023-3.22-.34-4.014-.522-.249-.045-.499.136-.522.386l-.431 4.422c-.024.249.136.454.386.476.771.113 2.54.295 4.808.295 6.169 0 8.641-2.2 8.641-6.509s-3.016-6.736-5.715-7.393c-2.676-.68-2.926-2.177-2.926-2.585s.272-1.837 2.54-1.814c1.61.045 3.311.363 4.128.521a.41.41 0 0 0 .521-.386l.431-4.4c.024-.249-.136-.476-.386-.499-.884-.091-2.994-.295-4.921-.295zm7.426 0c-.249 0-.431.204-.431.454v21.794c0 .249.181.431.431.431h8.618c5.466 0 9.911-3.357 9.911-11.34 0-7.96-4.445-11.34-9.911-11.34zm19.623 0c-.249 0-.431.204-.431.454v21.794c0 .249.181.431.431.431h5.488a.43.43 0 0 0 .431-.431v-8.187h6.736c.249 0 .454-.204.454-.454v-4.513c0-.249-.204-.454-.454-.454h-6.736v-3.22h7.756c.249 0 .454-.204.454-.431V5.039c0-.249-.204-.454-.454-.454zm-13.477 5.352h1.043c2.699 0 4.899 1.792 4.899 5.987s-2.2 5.987-4.899 5.987h-1.043c-.113 0-.227-.113-.227-.227V10.164c0-.136.113-.227.227-.227zm-30.322 1.429c-.953 0-1.837.113-2.608.34h-4.4c-.249 0-.431.181-.431.431v14.696c0 .249.182.431.431.431h5.896a.43.43 0 0 0 .431-.431v-9.026c0-.59.454-1.066 1.021-1.066.386 0 .726.227.907.567.091.136.136.318.136.499v9.026a.43.43 0 0 0 .431.431h5.193a.43.43 0 0 0 .431-.431v-8.777c0-3.697-2.54-6.69-7.439-6.69zm-33.123.34c-.839 0-1.656.113-2.427.363v-.023h-5.919c-.249 0-.431.181-.431.431v22.135a.43.43 0 0 0 .431.431h5.488c.227 0 .431-.204.431-.431v-7.053a7.87 7.87 0 0 0 3.107.363 8.15 8.15 0 0 0 7.393-7.212c.522-4.876-3.288-9.004-8.074-9.004zm16.905 0c-4.241 0-7.734 3.266-8.074 7.416-.024.204-.024.431-.024.658v.023a8.1 8.1 0 0 0 8.096 8.142 8.05 8.05 0 0 0 5.307-1.996c.159-.136.181-.385.068-.567l-2.359-3.493c-.159-.204-.454-.227-.635-.068a3.22 3.22 0 0 1-1.973.703c-.431 0-.862-.113-1.225-.295l8.595-1.882c.204-.045.363-.227.34-.454-.045-1.383-.363-2.631-.885-3.719h.001c-1.361-2.79-4.105-4.468-7.235-4.468z" stroke="indigo" stroke-linejoin="round" paint-order="stroke fill markers" stroke-width=".494"/><use xlink:href="#B" paint-order="stroke markers fill"/><use xlink:href="#B" stroke="indigo" stroke-linejoin="round" paint-order="stroke markers fill" stroke-width=".129"/></g><defs ><path id="B" d="M17.298.065a19.66 19.66 0 0 0-9.728 3.97c.438-.249 1.002-.17 1.352.213 1.17 1.287 3.261 1.765 4.868 1.108 1.676-.687 2.757-2.372 2.693-4.196-.017-.517.327-.968.815-1.096zm4.775.023a1.09 1.09 0 0 1 .773 1.108 4.37 4.37 0 0 0 2.657 4.27c1.627.679 3.732.197 4.905-1.102.347-.384.908-.465 1.343-.222A19.66 19.66 0 0 0 22.073.088zm-1.82 4.627a.67.67 0 0 0-.664.668.67.67 0 0 0 .01.095l-1.918.719a.67.67 0 0 0-1.217.263L7.008 7.478a.67.67 0 0 0-1.104-.255.67.67 0 0 0 .113 1.035l-.337 2.694a4.37 4.37 0 0 1 .114.704l.414-3.314a.67.67 0 0 0 .607-.142l7.274 4.85a.67.67 0 0 0-.065.136l-8.057-.24a.67.67 0 0 0-.211-.277 4.31 4.31 0 0 1-.283 1.001l-.089.196a.67.67 0 0 0 .609-.492l5.151 2.49a.67.67 0 0 0 .083.592l-4.079 3.92a.73.73 0 0 0-.422-.154.74.74 0 0 0-.737.737.74.74 0 0 0 .737.736c.113 0 .221-.039.322-.089l.276.394c-.008.015-.012.03-.021.046L3.659 23.38a4.36 4.36 0 0 1 .206.137l3.484-1.276c.048.077.107.154.202.154a.13.13 0 0 0 .046-.009l.425.605c-.02.027-.035.056-.045.088l-3.838.648a4.38 4.38 0 0 1 .192.17l3.692-.623c.049.069.109.138.197.138.03 0 .055-.013.083-.022l1.277 1.817a.67.67 0 0 0-.184.209l-4.375-.689a4.38 4.38 0 0 1 .135.224l4.168.657a.67.67 0 0 0 .182.608.67.67 0 0 0 .842.084l2.115 3.009a.67.67 0 0 0 .445 1.165h.002a.67.67 0 0 0 .305-1.262l.692-2.793a.26.26 0 0 0 .124-.069l.723.114.057-.194-.697-.11c-.006-.068-.048-.12-.099-.165l.547-2.207a6.61 6.61 0 0 1-.156-.196l-.583 2.349c-.082.016-.136.073-.173.146l-3.017-.476a.67.67 0 0 0-.874-.498l-1.305-1.857c.009-.018.018-.037.018-.057l5.176-.873a6.52 6.52 0 0 1-.082-.189l-5.153.869-.001-.002c-.05-.064-.108-.128-.192-.128-.01 0-.021.006-.03.006l-.432-.614c.029-.044.06-.087.06-.141 0-.019-.002-.036-.011-.054l5.279-1.933-.013-.208-5.391 1.974h0c-.041-.024-.083-.048-.132-.048-.024 0-.046.009-.069.016l-.274-.391c.149-.139.255-.321.255-.526 0-.164-.074-.314-.174-.442l4.075-3.916a.67.67 0 0 0 .976-.159l1.254.606.081-.182-1.253-.605a.67.67 0 0 0-.103-.575l1.874-1.801a.67.67 0 0 0 .674.155l.333.748.157-.139-.311-.699a.67.67 0 0 0 .281-.524l1.992.06a6.5 6.5 0 0 1 .556-.182l-2.571-.076a.67.67 0 0 0-.147-.266l1.267-1.218a.67.67 0 0 0 1.003-.126l2.33 1.393a1.33 1.33 0 0 0-.026.056l.096.002a.64.64 0 0 1 .033-.063l.022-.037.025-.03c.046-.058.102-.107.166-.145l.033-.02.038-.016a.63.63 0 0 1 .139-.043l.037-.007h.043.03a.63.63 0 0 1 .193.031l.016.006h.01l.057.027c.18.086.305.25.343.441l.117.026c-.035-.216-.184-.394-.374-.51l1.932-3.126a.67.67 0 0 0 .252.05.67.67 0 0 0 .149-.018l.653 3.242a.67.67 0 0 0-.339.581l-1.655-.04.549.216 1.141.034a.67.67 0 0 0 .556.453l.152.752a6.62 6.62 0 0 1 .244.245l-.203-1.004a.67.67 0 0 0 .497-.409l4.78.142a.67.67 0 0 0 0 .022.67.67 0 0 0 .009.063l-4.34 1.59h-.007c-.132-.219-.35-.381-.61-.381-.032 0-.064.005-.096.011l.095.104c.246 0 .464.137.568.352l.015.031.015.043c.017.048.021.097.031.147l.009.048v.033c-.002.05-.011.099-.024.148l.158.256 4.694 2.804a.67.67 0 0 0-.046.183l-3.757.653-.013.205 3.781-.657a.67.67 0 0 0 .016.066l-3.776 2.778-.001.001.001-.001a.67.67 0 0 0-.378-.234l-.038-.188a6.54 6.54 0 0 1-.632 1.253.67.67 0 0 0 .128.124l-1.266 1.697.069.235 1.37-1.839a.67.67 0 0 0 .693-.157.67.67 0 0 0 .148-.718l3.764-2.77a.67.67 0 0 0 1.219-.378.67.67 0 0 0-.038-.222l5.965-2.113a.67.67 0 0 0 1.168-.442.67.67 0 0 0-.003-.066 1.35 1.35 0 0 0-.483-.095c-.937 0-1.82-.287-2.545-.792L30.8 13.905a.67.67 0 0 0 0-.039.67.67 0 0 0-.553-.657l-.129-2.113a.67.67 0 0 0 .313-.252l3.278 2.653a4.28 4.28 0 0 1-.1-.336l-3.095-2.505a.67.67 0 0 0-.532-.841l-.223-1.499a.67.67 0 0 0 .122-1.041.67.67 0 0 0-1.049.135l-7.91-2.076a.67.67 0 0 0-.666-.62zm13.357 8.446l3.629 2.937a.67.67 0 0 1 1.114.428c.36.14.676.422.762.77A19.66 19.66 0 0 0 35.093 7.5a1.09 1.09 0 0 1-.196 1.372 4.39 4.39 0 0 0-1.288 4.288zm.1.336a4.27 4.27 0 0 0 .089.239 4.3 4.3 0 0 0 1.527 1.903l1.759.674a.67.67 0 0 1 .03-.059zM24.066 25.23l-1.355 1.818a.67.67 0 0 1-.602.958.67.67 0 0 1-.642-.483l-6.715-1.058-2.059 6.97c-1.416-.197-2.97.318-3.92 1.368-.361.398-.948.471-1.391.193a19.66 19.66 0 0 0 24.344.059 1.1 1.1 0 0 1-1.466-.138c-.911-1.001-2.374-1.512-3.741-1.379zm-.069-.235l-.115-.389a6.62 6.62 0 0 0 1.252-1.432.67.67 0 0 1-.115-.604l-2.845-1.374a.67.67 0 0 1-.372.299l.461 5.193a.67.67 0 0 1 .332.188zm1.769-3.074c.209-.556.344-1.149.394-1.765l-.2.035a.67.67 0 0 1-.398.717zm.407-1.97a6.62 6.62 0 0 0 .009-.328 6.52 6.52 0 0 0-.9-3.313l-.147-.088a.72.72 0 0 1-.45.34l.617 3.062a.67.67 0 0 1 .596.374h0zm-1.05-3.896a6.6 6.6 0 0 0-.614-.802c-.048.001-.096.007-.143.019l-.04.01-.035.013c-.082.032-.155.082-.217.145l-.03.029-.023.031a.62.62 0 0 0-.126.375.82.82 0 0 0 .019.153l.011.046v.006l.011.028c.06.15.176.271.323.338l.035.016.04.012c.058.017.118.027.179.027v-.002h.01.013.049l.035-.006c.207-.032.382-.166.47-.356l.016-.034.013-.041zm-.709-.906l-.031-.034.008.037.024-.004zm-.275-.278a6.58 6.58 0 0 0-1.848-1.239l-1.162-.035 2.906 1.736c.052-.047.111-.086.174-.116zm-2.397-1.456a6.5 6.5 0 0 0-.618-.178c.005.031.008.063.008.095 0 .021-.01.043-.01.064zm-.735-.204a6.55 6.55 0 0 0-1.185-.144.63.63 0 0 0-.059.26c0 .024 0 .048.01.072l.009.048.01.033a.63.63 0 0 0 .161.285l.023.024.038.03c.11.085.244.132.382.132l-.002.006c.222 0 .427-.118.539-.309l.022-.037.014-.034c.01-.018.013-.036.019-.055l.011-.032.01-.048a.46.46 0 0 0 .011-.109.62.62 0 0 0-.012-.122zm-1.281-.146l-.104-.001c-.606 0-1.193.083-1.751.238l1.789.053v-.02a.66.66 0 0 1 .066-.269zm-2.411.418c-.723.272-1.385.669-1.961 1.164l1.533 3.442a.67.67 0 0 1 .083-.007.67.67 0 0 1 .214.036h0l2.664-4.31c-.064-.075-.112-.16-.143-.253zm-2.118 1.302c-.636.582-1.157 1.288-1.525 2.079l2.86 1.382a.67.67 0 0 1 .16-.103zm-1.607 2.261c-.339.792-.528 1.663-.528 2.577a6.62 6.62 0 0 0 .008.31l3.231-1.183a.67.67 0 0 1 .098-.346zm-.507 3.095a6.5 6.5 0 0 0 .481 1.996l.692-.117a.67.67 0 0 1 .835-.519l1.407-2.276a.67.67 0 0 1-.167-.274zm.563 2.184a6.57 6.57 0 0 0 .758 1.266l.211-.85a.67.67 0 0 1-.365-.518zm.913 1.462a6.63 6.63 0 0 0 .753.776l-.504 1.706 6.634 1.046a.67.67 0 0 1 .285-.525l-2.762-4.676a.67.67 0 0 1-.86-.557l-2.542.443a.67.67 0 0 1-.652.813.67.67 0 0 1-.108-.01zm-9.406 1.164l-3.016-.475a.67.67 0 0 1-.645.497.67.67 0 0 1-.668-.668.67.67 0 0 1 .8-.655l.316-.885a4.03 4.03 0 0 0-.602-.03c-.532 0-1.154-.368-1.274-.877a19.66 19.66 0 0 0 4.251 10.105l-.15-.189c-.355-.449-.301-1.096.119-1.482 1.345-1.233 1.787-3.187 1.1-4.863-.068-.165-.145-.324-.231-.477zm-3.214-2.187a4.09 4.09 0 0 1 .202.03l3.083-8.633c-.124.209-.266.407-.424.59zm2.861-8.012l.329-.922a.67.67 0 0 1-.451-.631.67.67 0 0 1 .801-.655l.199-1.59a4.36 4.36 0 0 0-1.307-2.19c-.384-.349-.466-.913-.215-1.352a19.66 19.66 0 0 0-4.073 9.732c.123-.489.541-.833 1.108-.815 1.449 0 2.76-.593 3.608-1.577zm.424-.59l.158-.295a.67.67 0 0 1-.035.001zm-3.083 8.633l-.33.925a.67.67 0 0 1 .254.245l.001-.001 1.591-.583c-.464-.291-.979-.492-1.516-.586zm2.877 1.933a4.38 4.38 0 0 0-.689-.829l-2.17.366zm-.881-.999l-.274-.211-1.302.477zm1.618-11.058c.053-.337.065-.676.038-1.012l-.12.958a.67.67 0 0 1 .081.054zm15.154-7.134l7.851 2.061a.67.67 0 0 0-.018.151l-5.225.914.001-.001a.67.67 0 0 0-.75-.326l-1.941-2.601a.67.67 0 0 0 .082-.198zm-1.254.135a.67.67 0 0 0 .603.382l-.039 6.571-.064.019-2.575-5.589a.67.67 0 0 0 .184-.672zm1.038.221l1.886 2.525a.67.67 0 0 0-.069 1.084l-1.933 3.125h0c-.052-.014-.105-.025-.159-.025l.049-6.583a.67.67 0 0 0 .226-.127zm-4.231.772a.67.67 0 0 0 .591.567l-.249 3.35a.67.67 0 0 0-.505.311L7.03 7.836a.67.67 0 0 0 .015-.14.67.67 0 0 0 0-.022zm.952.504l2.564 5.569a.68.68 0 0 0-.119.103l-2.351-1.406a.67.67 0 0 0-.504-.841l.25-3.37a.67.67 0 0 0 .161-.054zm11.36.783a.67.67 0 0 0 .169.276l-4.475 4.7a.67.67 0 0 0-.541-.123l-.655-3.246a.67.67 0 0 0 .314-.704zM6.96 8.024l9.261 3.051a.67.67 0 0 0-.023.169.67.67 0 0 0 .094.341l-1.295 1.245a.67.67 0 0 0-.777.067l-7.275-4.85a.67.67 0 0 0 .014-.024zm22.148.319a.67.67 0 0 0 .465.054l.21 1.416a.67.67 0 0 0-.557.823l-4.588 2.479h-.001.001a.67.67 0 0 0-.03-.046zm.196 2.476a.67.67 0 0 0 .617.321l.126 2.065a.67.67 0 0 0-.545.443l-4.768-.145a.67.67 0 0 0 0-.049.67.67 0 0 0-.019-.154zM6.015 13.148l7.972.238a.69.69 0 0 0 .081.336l-1.894 1.82a.67.67 0 0 0-.939.145l-5.22-2.521zm14.96.589c-.137.191-.341.332-.58.332-.142 0-.272-.059-.391-.135l-2.644 4.277a.67.67 0 0 1 .117.108h0l6.321-2.314a.6.6 0 0 1-.016-.13c0-.138.055-.266.128-.382zm9.786.366l6.272 2.402a.67.67 0 0 0-.01.045l-11.777-.785c-.003-.024-.005-.047-.014-.071l4.289-1.572a.67.67 0 0 0 .616.411.67.67 0 0 0 .624-.431zm-5.517 1.862l11.797.787a.67.67 0 0 0 .038.11l-5.95 2.107h0a.67.67 0 0 0-1.052-.024l-4.847-2.897c.004-.027.004-.054.013-.082zm-1.368.224l-6.29 2.303a.67.67 0 0 1 .052.287l3.437 1.662a.67.67 0 0 1 .815-.183l2.281-3.761c-.127-.072-.23-.177-.295-.308zm.475.396l-2.298 3.786a.67.67 0 0 1 .173.265h0l2.408-.419a.67.67 0 0 1 .469-.564l-.614-3.048a.62.62 0 0 1-.139-.02zm-6.755 2.393a.67.67 0 0 1-.123.209l.997 1.689a.67.67 0 0 1 .876.26v.002l1.583-.277c0-.089.016-.172.047-.25zm-.279.342a.67.67 0 0 1-.656.023l-1.385 2.241a.67.67 0 0 1 .213.224l2.622-.456a.67.67 0 0 1 .193-.359zM6.724 20.336c.147 0 .289.053.401.147l.018.015.036.04a.62.62 0 0 1 .164.422c0 .192-.088.373-.239.492l-.039.031-.023.013a.62.62 0 0 1-.318.088l-.001.002c-.346 0-.625-.279-.625-.625s.279-.625.625-.625zm17.919.086l-2.379.414a.67.67 0 0 1-.018.175l2.858 1.379a.67.67 0 0 1 .492-.292l-.23-1.139a.67.67 0 0 1-.724-.536zm-3.685.639l-1.541.268a.67.67 0 0 1-.27.696l2.761 4.677a.67.67 0 0 1 .153-.03l-.457-5.144a.67.67 0 0 1-.646-.467zm-13.411.912c.036 0 .071.013.099.036l.016.013h.01l.019.042c.006.02.015.043.015.066 0 .042-.017.082-.048.112l-.023.022-.033.012c-.017.004-.034.009-.052.009h-.005c-.07 0-.131-.047-.15-.115l-.01-.036.01-.031c.005-.027.015-.052.033-.073l.023-.027.027-.013c.021-.01.045-.016.069-.016zm31.553.026c-.124.511-.606.88-1.128.837l-.243-.007c-1.738 0-3.354 1.071-4.023 2.666-.711 1.694-.267 3.666 1.102 4.906a1.09 1.09 0 0 1 .177 1.413 19.66 19.66 0 0 0 4.115-9.816zm-30.883.993c.063 0 .119.037.143.095l.013.032v.032c0 .031-.009.061-.028.087l-.018.027-.031.017c-.024.014-.05.021-.078.021h-.001c-.065-.001-.122-.041-.145-.102l-.011-.03v-.034c.004-.043.023-.082.056-.11l.026-.02.032-.01c.014-.006.028-.006.042-.006zm2.422 2.824l2.989.471c.02.039.048.07.082.095l-.687 2.766a.67.67 0 0 0-.117-.011.67.67 0 0 0-.279.062l-2.133-3.035a.67.67 0 0 0 .146-.35zm3.221.21h.011l.033.006.03.015c.051.027.081.08.081.138v.022.027h-.01l-.019.03c-.029.045-.079.072-.131.072h-.034l-.017-.011c-.043-.019-.075-.057-.088-.103l-.009-.031v-.034c.013-.075.077-.13.154-.13z"/></defs></svg>